<svg width="162" height="51" viewBox="0 0 162 51" fill="none" xmlns="http://www.w3.org/2000/svg">
<g clip-path="url(#clip0_231_982)">
<path d="M51.1448 23.3054C51.0327 22.0145 50.8314 20.7369 50.52 19.4782C49.3481 14.7577 47.0405 10.6675 43.5288 7.28707C38.699 2.63659 32.9044 0.215773 26.1773 0.0340694C26.1127 0.0321767 26.0463 0.0113565 25.9817 0H25.3397C25.2733 0.0113565 25.2087 0.0321767 25.1403 0.0340694C18.5404 0.198738 12.8237 2.53438 8.02432 7.03155C4.30369 10.5142 1.88595 14.771 0.70652 19.7205C0.414036 20.9451 0.222212 22.1849 0.129149 23.4397C0.10066 23.8259 0.0740706 24.2139 0.0436827 24.6019C0.0379849 24.6587 0.015194 24.7155 0 24.7722V26.2334C0.0284887 26.4435 0.0702721 26.6517 0.0816676 26.8599C0.15004 28.2473 0.334267 29.6177 0.636247 30.9729C1.72072 35.8429 4.04729 40.0391 7.57989 43.5672C9.58929 45.5735 11.8836 47.1918 14.4438 48.4334C17.9365 50.1255 21.6324 50.964 25.5145 50.9981C26.9769 51.0114 28.4317 50.8845 29.8751 50.646C32.403 50.2278 34.817 49.4517 37.1037 48.3028C41.1852 46.2511 44.4974 43.3268 47.0196 39.5281C49.4564 35.858 50.8276 31.817 51.1695 27.4334C51.2759 26.0574 51.2626 24.6795 51.1448 23.3035V23.3054ZM36.0667 4.73943C36.2338 4.59558 36.4029 4.45363 36.5852 4.3306C37.1208 3.97098 37.6697 3.96719 38.2204 4.30031C38.3097 4.3552 38.4009 4.42145 38.4635 4.50473C38.6364 4.73565 38.7978 4.97792 38.9573 5.2183C38.9877 5.26372 38.9972 5.3224 39.0352 5.42461C38.9289 5.35647 38.8662 5.31672 38.8073 5.27508C38.0628 4.77539 37.2423 4.61073 36.3611 4.7205C36.2813 4.72997 36.2053 4.79811 36.1313 4.84543C36.0857 4.87382 36.0496 4.91546 36.0097 4.95142C35.9926 4.93817 35.9755 4.92681 35.9584 4.91356C35.9945 4.85489 36.0173 4.78107 36.0667 4.73754V4.73943ZM8.21994 8.75583C8.3073 8.60441 8.41366 8.46246 8.51812 8.3224C10.0451 6.30852 12.0089 4.91546 14.4381 4.18107C14.4969 4.16214 14.5558 4.14511 14.6166 4.13375C14.8787 4.08265 15.1085 4.20946 15.1997 4.45931C15.2927 4.71293 15.2073 4.95331 14.9737 5.0858C14.9281 5.1123 14.8768 5.13123 14.8274 5.15205C12.6129 6.08517 10.7231 7.46309 9.14107 9.25931C9.01762 9.40126 8.89227 9.53186 8.71754 9.52429C8.27122 9.52997 8.01672 9.11167 8.22184 8.75394L8.21994 8.75583ZM14.4799 39.5243H14.4571C14.2747 39.5186 14.0924 39.4959 14.0126 39.3066C13.9348 39.1249 13.9841 38.947 14.1 38.7918C14.1361 38.7426 14.1874 38.7047 14.2254 38.6593C14.3792 38.4719 14.3811 38.3035 14.2083 38.1312C14.1019 38.0233 13.9785 37.9306 13.8474 37.853C13.4106 37.5937 12.9301 37.4328 12.442 37.3079C12.1704 37.2379 11.8836 37.2227 11.6082 37.1584C11.3423 37.0959 11.0688 37.0334 10.8219 36.9199C10.3243 36.6908 10.1686 36.2593 10.4041 35.7634C10.518 35.5268 10.6776 35.3054 10.8466 35.1028C11.1885 34.6883 11.6044 34.3514 12.0298 34.0278C12.6015 33.5924 13.196 33.1931 13.8322 32.8543C14.8521 32.3148 15.8492 31.7356 16.8007 31.0826C17.2736 30.7571 17.739 30.424 18.134 30.0038C18.2897 29.8391 18.4322 29.6555 18.5442 29.4587C18.7057 29.1785 18.6373 28.9741 18.3486 28.8416C17.9688 28.6637 17.5604 28.5804 17.1464 28.6694C15.9195 28.9344 14.6888 29.1653 13.4467 29.3337C12.3641 29.4814 11.2758 29.5836 10.1819 29.6347C9.27972 29.6744 8.37757 29.6763 7.47733 29.6233C6.59038 29.5703 5.70534 29.4909 4.84878 29.2524C4.279 29.0934 3.789 28.7754 3.40345 28.3249C3.06918 27.935 3.07488 27.4978 3.39205 27.0946C3.58388 26.8524 3.83078 26.6707 4.09477 26.5117C4.71773 26.1331 5.39766 25.8757 6.08519 25.6448C7.41276 25.2 8.77452 24.882 10.1439 24.5962C11.7981 24.2517 13.4638 23.9773 15.1351 23.7331C15.4732 23.6839 15.815 23.6442 16.1797 23.595C16.193 23.6896 16.2025 23.7672 16.2139 23.858C16.1683 23.8751 16.1341 23.8921 16.0999 23.8978C14.7856 24.1003 13.4676 24.2801 12.159 24.5091C10.1401 24.8593 8.13447 25.2681 6.18774 25.9211C5.64646 26.1028 5.11657 26.3262 4.59997 26.5703C4.30749 26.7085 4.0283 26.8997 3.7833 27.1117C3.32938 27.5035 3.33318 27.8877 3.7776 28.2927C4.22013 28.6959 4.73292 28.9609 5.33308 29.0707C6.35108 29.258 7.37667 29.3451 8.41176 29.364C9.85899 29.3924 11.3005 29.2959 12.7363 29.1274C14.2254 28.9495 15.6954 28.6713 17.1654 28.3722C17.6611 28.2719 18.1568 28.3817 18.5974 28.6467C18.8937 28.8227 18.9792 29.1066 18.8747 29.4397C18.7816 29.7312 18.6031 29.9716 18.3809 30.1722C18.0314 30.4902 17.6763 30.8044 17.2983 31.0864C16.3525 31.7886 15.3326 32.3773 14.2956 32.9356C13.6005 33.3085 12.9263 33.7098 12.3014 34.1905C11.8589 34.5293 11.4221 34.8795 11.0593 35.3054C10.9283 35.4625 10.8029 35.629 10.7061 35.8088C10.48 36.229 10.5902 36.5129 11.0327 36.7041C11.3442 36.8404 11.6785 36.8782 12.0127 36.9293C12.7819 37.0486 13.5093 37.2927 14.1703 37.711C14.2538 37.764 14.3298 37.8322 14.3982 37.9022C14.7059 38.2126 14.7135 38.5457 14.4267 38.8751C14.3469 38.9659 14.2405 39.0435 14.2937 39.195C14.4419 39.2612 14.5957 39.2328 14.7382 39.1874C15.0515 39.0908 15.3592 38.9754 15.6669 38.8656C15.7448 38.8372 15.8207 38.805 15.91 38.7691C15.9518 38.858 15.9879 38.93 16.0315 39.0227C15.5225 39.2479 15.0287 39.4675 14.4818 39.5243H14.4799ZM16.6925 40.0713C16.683 39.8006 16.6868 39.5716 16.7039 39.3104C16.9261 39.4013 17.1179 39.4808 17.3591 39.5792C17.1255 39.7514 16.928 39.8972 16.6925 40.0713ZM17.7504 39.0681C17.5205 38.7842 17.2129 38.6366 16.8235 38.612C16.8539 38.4908 16.8786 38.3886 16.9071 38.2883C17.4845 36.2101 18.21 34.183 19.0665 32.205C19.623 30.9199 20.2289 29.6555 20.8081 28.3798C20.8651 28.2568 20.9544 28.1716 21.0626 28.0978C22.5441 27.0852 24.1698 26.4095 25.9266 26.0536C26.5401 25.9306 27.1649 25.87 27.786 25.7867C27.9094 25.7697 28.0386 25.7849 28.1696 25.7849C27.7708 26.8448 19.0134 38.0101 17.7485 39.0662L17.7504 39.0681ZM29.5922 23.7729C29.4003 24.0587 29.2009 24.3369 29.0186 24.6284C28.9331 24.7647 28.8344 24.795 28.6805 24.7931C26.9693 24.7628 25.298 24.9861 23.6893 25.5937C23.0512 25.836 22.4453 26.1407 21.8755 26.5136C21.8451 26.5344 21.8128 26.5533 21.7806 26.5722C21.7692 26.5628 21.7578 26.5533 21.7464 26.5438C21.7825 26.4719 21.8166 26.3962 21.8546 26.3243C23.7121 22.7867 25.7747 19.3703 27.9683 16.0315C28.069 15.8782 28.1772 15.7306 28.2684 15.5716C28.3444 15.441 28.4507 15.3842 28.5913 15.3483C29.803 15.036 31.0223 14.7445 32.2606 14.5533C32.8646 14.4606 33.4723 14.3811 34.0858 14.4038C34.3061 14.4132 34.5264 14.4473 34.7429 14.4908C34.8645 14.5173 34.9784 14.5874 35.1152 14.6461C35.0658 14.7426 35.0297 14.8164 34.9917 14.8883C33.3394 17.9394 31.5218 20.8902 29.5903 23.7729H29.5922ZM39.3657 7.96656C39.208 9.32177 38.7294 10.5804 38.1426 11.7994C37.3829 13.376 36.4389 14.8429 35.4228 16.2644C35.2899 16.4498 35.155 16.6334 35.0202 16.8189C35.0069 16.8114 34.9936 16.8057 34.9784 16.8C35.0107 16.7262 35.043 16.6505 35.0753 16.5767C35.8274 14.894 36.5947 13.2189 37.3297 11.5287C37.8406 10.3552 38.3078 9.16467 38.6668 7.93438C38.7446 7.67318 38.7997 7.40442 38.8586 7.13565C38.8757 7.06183 38.9099 6.96341 38.7579 6.93502C38.2033 8.30725 37.6146 9.66814 36.965 11.0177C34.8474 10.7262 32.8342 11.1596 30.859 11.8675C30.8514 11.8543 30.8438 11.841 30.8362 11.8278C30.8741 11.7729 30.9102 11.7161 30.9482 11.6593C32.4049 9.59811 33.911 7.57287 35.4589 5.57792C35.5919 5.40568 35.7457 5.32618 35.9508 5.29401C36.9024 5.14259 37.7874 5.36025 38.6326 5.78612C38.8168 5.87886 38.9877 5.99432 39.1682 6.09464C39.2707 6.15142 39.3201 6.23659 39.3372 6.34826C39.4227 6.8858 39.4284 7.42524 39.3657 7.96467V7.96656Z" fill="#001F3F"/>
<path d="M78.8195 11.7238C77.2812 17.6027 75.7523 23.4418 74.2215 29.2866H68.8979C68.0128 25.6525 67.1259 22.0185 66.2332 18.3522C66.0262 18.4696 66.0547 18.6759 66.0167 18.8273C65.3634 21.3882 64.7233 23.9548 64.0776 26.5175C63.8706 27.339 63.6617 28.1585 63.4527 28.9781C63.4261 29.0784 63.3882 29.1749 63.3521 29.2866H58.0532C56.568 23.4551 55.0809 17.6178 53.5938 11.7825C53.9413 11.6822 57.6296 11.6519 58.3476 11.7447C59.1414 15.7346 59.9391 19.7453 60.7406 23.7787C60.9419 23.6803 60.9172 23.4872 60.9514 23.3453C61.5763 20.8242 62.1935 18.2992 62.8108 15.7743C63.1128 14.5421 63.4167 13.3081 63.7205 12.0778C63.749 11.9623 63.7946 11.8506 63.8364 11.7219H68.6643C69.612 15.7346 70.5578 19.7415 71.5036 23.7484C71.5378 23.7503 71.572 23.7503 71.6062 23.7522C72.0335 21.7592 72.4134 19.7566 72.8217 17.7598C73.2301 15.7611 73.6213 13.7604 74.0277 11.7238H78.8195Z" fill="#001F3F"/>
<path d="M142.269 11.7294V29.277C142.138 29.2865 142.007 29.3054 141.874 29.3073C140.675 29.3073 139.475 29.2979 138.275 29.3149C137.976 29.3187 137.811 29.2108 137.654 28.9704C135.526 25.7471 133.39 22.5313 131.255 19.3155C131.175 19.1925 131.086 19.0733 131.001 18.954C130.968 18.9654 130.938 18.9767 130.906 18.9881V29.2203C130.545 29.33 126.938 29.3452 126.469 29.243V11.6991H126.98C128.119 11.6991 129.259 11.7124 130.397 11.6897C130.742 11.684 130.942 11.79 131.133 12.0815C133.207 15.2461 135.297 18.4032 137.382 21.5603C137.502 21.7439 137.627 21.9218 137.75 22.1035C137.781 22.0922 137.811 22.0827 137.842 22.0714V11.7294H142.269Z" fill="#001F3F"/>
<path d="M161.992 23.1292C161.992 23.3223 161.956 23.5248 161.888 23.7027C160.741 26.7103 158.579 28.5822 155.429 29.239C153.243 29.6951 151.095 29.4642 149.089 28.4327C146.485 27.0926 145.015 24.9159 144.582 22.056C144.29 20.1197 144.459 18.2156 145.306 16.4232C146.576 13.7317 148.728 12.1664 151.647 11.6459C153.395 11.3336 155.134 11.4282 156.815 12.015C159.292 12.8819 160.931 14.5645 161.654 17.0951C161.675 17.1671 161.687 17.2409 161.711 17.3488H156.838C155.824 15.7248 154.266 15.4163 152.544 15.6945C150.692 15.9935 149.607 17.1879 149.167 18.9557C148.872 20.1349 148.907 21.3311 149.292 22.4913C149.871 24.2346 151.127 25.179 152.924 25.4346C153.636 25.5349 154.35 25.5273 155.051 25.3437C156.473 24.9708 157.358 24.032 157.909 22.6068H152.568V19.3059H161.954C161.968 19.41 161.996 19.5235 161.996 19.6352C162 20.8011 162.002 21.9652 161.992 23.1292Z" fill="#001F3F"/>
<path d="M90.7529 22.4215C90.7966 22.3836 90.8156 22.3552 90.8403 22.3439C90.9808 22.2852 91.1214 22.2303 91.2619 22.1735C92.6902 21.6 93.6911 20.6063 94.2343 19.166C94.5115 18.4316 94.5913 17.6688 94.54 16.8909C94.4128 14.9716 93.5562 13.4934 91.845 12.547C90.7434 11.9376 89.5431 11.7067 88.2972 11.701C85.9289 11.6915 83.5605 11.6972 81.1921 11.701C81.0611 11.701 80.9319 11.7256 80.8047 11.7369V29.2789H85.2318V25.995C85.2318 25.4518 85.2299 24.9067 85.2318 24.3615C85.2356 23.824 85.2166 23.2865 85.2451 22.7546H86.1074C86.1947 22.9079 86.2688 23.0385 86.3429 23.1691C87.4046 25.0884 88.47 27.0057 89.5222 28.9306C89.6685 29.1975 89.828 29.3205 90.1547 29.3168C91.5354 29.2959 92.9181 29.3092 94.2988 29.3073C94.4299 29.3054 94.559 29.2884 94.7584 29.2713C93.4005 26.9508 92.0767 24.6833 90.7529 22.4215ZM89.9496 18.1193C89.7767 18.8101 89.338 19.2568 88.6429 19.4291C88.3808 19.4953 88.1035 19.5275 87.8338 19.5332C87.0741 19.5464 86.3144 19.5388 85.5547 19.5369C85.4673 19.5369 85.3781 19.5256 85.2622 19.5161V15.4638C85.3173 15.4373 85.3439 15.4145 85.3724 15.4145C86.3277 15.4221 87.2849 15.3956 88.2383 15.4486C89.338 15.5092 90.0483 16.2398 90.0293 17.5363C90.0255 17.7313 89.997 17.93 89.9496 18.1193Z" fill="#001F3F"/>
<path d="M117.132 11.7236V15.2612H112.544C112.525 16.2397 112.538 17.1691 112.534 18.1003C112.532 19.0221 112.534 19.9438 112.534 20.8675V29.2769H108.092V15.2971H103.475V11.7236H117.132Z" fill="#001F3F"/>
<path d="M123.526 29.2824H119.195C119.095 28.9398 119.053 12.6887 119.144 11.7783C119.456 11.6799 122.823 11.6477 123.486 11.7367C123.583 12.0604 123.624 28.3834 123.526 29.2824Z" fill="#001F3F"/>
<path d="M101.439 11.7275V29.2354C101.063 29.3339 97.428 29.3376 97.0234 29.2411V11.7275H101.439Z" fill="#001F3F"/>
<path d="M87.6876 41.1239C86.9336 39.0873 86.1796 37.0507 85.4256 35.0141C85.1198 34.1889 84.8083 33.3656 84.5196 32.5346C84.4342 32.2905 84.305 32.1958 84.0543 32.2167C83.815 32.2337 83.5719 32.2204 83.3535 32.2204C82.966 32.9775 79.914 41.317 79.9102 41.6179H80.8256C81.1105 40.8589 81.3821 40.1283 81.6537 39.4034H86.039C86.3182 40.1454 86.5955 40.8854 86.8766 41.6293H87.8585C87.7863 41.4154 87.7407 41.2678 87.6895 41.1239H87.6876ZM81.9518 38.5763C82.5748 36.8747 83.1826 35.2129 83.8302 33.445C84.2309 34.3403 84.493 35.1807 84.8026 36.0003C85.1179 36.8368 85.4142 37.6772 85.7199 38.5138C85.4085 38.6368 82.8407 38.6766 81.9518 38.5763Z" fill="#001F3F"/>
<path d="M100.817 38.9018H101.873C101.829 39.0324 101.808 39.1403 101.761 39.2368C101.047 40.7018 99.8465 41.491 98.2493 41.6974C97.5522 41.7863 96.8495 41.7768 96.1677 41.5705C94.3444 41.016 93.2638 39.7743 92.8915 37.9346C92.6484 36.7327 92.7699 35.5478 93.3568 34.4519C94.2001 32.8734 95.5409 32.0671 97.3319 31.9895C97.9796 31.963 98.6158 32.0387 99.2293 32.2469C100.382 32.6387 101.218 33.3901 101.748 34.4784C101.801 34.5882 101.833 34.7093 101.884 34.857H100.8C100.356 33.9106 99.6813 33.2444 98.6804 32.9718C96.2114 32.3037 94.0481 33.6948 93.8012 36.3106C93.7386 36.9787 93.7708 37.645 93.9646 38.2961C94.4964 40.0809 96.1107 41.122 97.9682 40.9005C99.2274 40.7491 100.16 40.1491 100.741 39.021C100.758 38.985 100.785 38.951 100.817 38.9018Z" fill="#001F3F"/>
<path d="M62.1785 41.2105C61.4872 41.6875 60.7047 41.7953 59.8899 41.748C59.2233 41.7083 58.5927 41.5436 58.0419 41.148C57.4057 40.6919 57.0277 40.0881 56.9727 39.2534H57.9356C57.9527 39.3064 57.9831 39.384 58.0077 39.4597C58.2452 40.2546 58.7617 40.7524 59.586 40.9058C60.0665 40.9947 60.5508 40.989 61.0256 40.8509C61.9582 40.5783 62.4653 39.7682 62.2943 38.8181C62.1918 38.2464 61.8176 37.8849 61.3067 37.6711C60.9136 37.5083 60.4977 37.3966 60.0931 37.266C59.5651 37.0957 59.0276 36.948 58.5091 36.7531C56.5985 36.0376 56.6916 33.5524 57.966 32.6382C58.4047 32.324 58.8814 32.1215 59.4132 32.0401C60.1596 31.9247 60.8927 31.9606 61.6011 32.2408C62.5033 32.6023 63.0825 33.3461 63.1775 34.266H62.1956C62.1576 34.1638 62.1253 34.0729 62.0873 33.9821C61.8955 33.5487 61.5897 33.2099 61.1567 33.0225C60.4464 32.7102 59.7133 32.6969 58.9973 33.0073C58.3667 33.2837 58.0248 33.7758 58.0058 34.4723C57.9869 35.1575 58.3078 35.6572 58.9118 35.9392C59.3467 36.1436 59.8196 36.2704 60.2773 36.4237C60.7655 36.5865 61.2593 36.7247 61.7398 36.9064C62.6229 37.2395 63.1927 37.8509 63.2801 38.8181C63.3712 39.8174 63.0104 40.6294 62.1747 41.2086L62.1785 41.2105Z" fill="#001F3F"/>
<path d="M75.0558 34.5049C74.9704 33.4393 74.412 32.6898 73.3978 32.3434C72.9344 32.1863 72.4254 32.122 71.9335 32.0993C71.0655 32.0595 70.1956 32.086 69.3239 32.0898C69.2156 32.0898 69.1036 32.1068 69.001 32.1163C68.9099 32.6008 68.9288 41.2999 69.02 41.6217H69.8899V37.5769C70.1292 37.5769 70.2963 37.5806 70.4672 37.5769C71.1927 37.5598 71.924 37.5769 72.6438 37.5125C73.8783 37.4008 74.7595 36.6627 75.0007 35.5592C75.0748 35.2185 75.0824 34.8513 75.0558 34.503V34.5049ZM74.0948 35.1163C74.0378 35.8071 73.7055 36.3352 73.0274 36.5737C72.7368 36.6759 72.4197 36.7422 72.112 36.7554C71.4453 36.7838 70.773 36.7668 70.1045 36.7649C70.0513 36.7649 69.9981 36.7478 69.9203 36.7346V32.9321C70.0437 32.9207 70.1539 32.9018 70.2621 32.9018C70.8319 32.9018 71.4017 32.8885 71.9714 32.9056C72.2525 32.9131 72.5393 32.9472 72.8147 33.0097C73.0179 33.057 73.2249 33.1441 73.3959 33.2633C74.0473 33.7176 74.1518 34.3989 74.0929 35.1163H74.0948Z" fill="#001F3F"/>
<path d="M112.586 41.572C112.241 41.6704 108.178 41.6931 107.656 41.6117C107.567 41.3089 107.54 32.6818 107.629 32.1045H112.556V32.8559H108.558V36.4427C109.743 36.4597 110.921 36.4427 112.134 36.4559V37.2282H108.564V40.8736H112.552C112.567 41.0023 112.584 41.0837 112.586 41.1651C112.592 41.3032 112.586 41.4452 112.586 41.572Z" fill="#001F3F"/>
</g>
<defs>
<clipPath id="clip0_231_982">
<rect width="162" height="51" fill="white"/>
</clipPath>
</defs>
</svg>
