<svg width="251" height="79" viewBox="0 0 251 79" fill="none" xmlns="http://www.w3.org/2000/svg">
<g clip-path="url(#clip0_231_944)">
<path d="M79.2429 36.1005C79.0693 34.1009 78.7573 32.1219 78.2747 30.1722C76.4591 22.86 72.8838 16.5242 67.4428 11.2878C59.9596 4.08413 50.9816 0.334236 40.5587 0.0527742C40.4586 0.0498423 40.3556 0.0175914 40.2556 0H39.261C39.158 0.0175914 39.0579 0.0498423 38.952 0.0527742C28.7262 0.307849 19.8688 3.92581 12.4327 10.892C6.66807 16.2867 2.92206 22.8805 1.09467 30.5474C0.6415 32.4444 0.344291 34.3648 0.200101 36.3086C0.155961 36.9067 0.114764 37.5078 0.0676812 38.1088C0.0588532 38.1968 0.0235413 38.2847 0 38.3727V40.6361C0.0441399 40.9615 0.108878 41.2841 0.126534 41.6066C0.23247 43.7556 0.517908 45.8783 0.985791 47.9776C2.66605 55.5214 6.27081 62.0214 11.7442 67.4864C14.8575 70.5942 18.4122 73.101 22.3789 75.0243C27.7905 77.6455 33.5169 78.9443 39.5317 78.9971C41.7975 79.0176 44.0516 78.8211 46.288 78.4517C50.2047 77.8038 53.9448 76.6017 57.4878 74.822C63.8116 71.6439 68.9436 67.1141 72.8514 61.2298C76.6268 55.5448 78.7514 49.2852 79.2811 42.4949C79.4459 40.3634 79.4253 38.229 79.2429 36.0975V36.1005ZM55.8811 7.34147C56.1401 7.11865 56.402 6.89876 56.6844 6.70818C57.5143 6.15112 58.3647 6.14526 59.2181 6.66127C59.3564 6.7463 59.4976 6.84891 59.5947 6.97792C59.8625 7.33561 60.1126 7.71089 60.3598 8.08324C60.4069 8.15361 60.4216 8.2445 60.4805 8.40282C60.3157 8.29727 60.2186 8.2357 60.1274 8.1712C58.9738 7.39718 57.7026 7.1421 56.3372 7.31215C56.2136 7.32681 56.0959 7.43236 55.9812 7.50566C55.9105 7.54964 55.8546 7.61414 55.7928 7.66985C55.7663 7.64932 55.7399 7.63173 55.7134 7.61121C55.7693 7.52032 55.8046 7.40597 55.8811 7.33854V7.34147ZM12.7358 13.563C12.8712 13.3284 13.036 13.1085 13.1978 12.8916C15.5637 9.77202 18.6064 7.61414 22.3701 6.47656C22.4613 6.44724 22.5525 6.42086 22.6467 6.40326C23.0528 6.3241 23.4089 6.52054 23.5501 6.90755C23.6943 7.30043 23.5619 7.67278 23.1999 7.87801C23.1293 7.91906 23.0499 7.94838 22.9733 7.98063C19.5422 9.42605 16.6143 11.5605 14.163 14.3428C13.9717 14.5627 13.7775 14.765 13.5068 14.7533C12.8153 14.7621 12.421 14.1142 12.7388 13.56L12.7358 13.563ZM22.4348 61.2239H22.3995C22.117 61.2151 21.8345 61.1799 21.7109 60.8867C21.5903 60.6053 21.6668 60.3297 21.8463 60.0892C21.9022 60.013 21.9817 59.9544 22.0405 59.884C22.2789 59.5938 22.2818 59.3328 22.014 59.066C21.8492 58.8989 21.658 58.7552 21.4549 58.635C20.7781 58.2334 20.0336 57.9841 19.2774 57.7906C18.8566 57.6822 18.4122 57.6587 17.9855 57.559C17.5736 57.4623 17.1498 57.3655 16.7673 57.1896C15.9963 56.8348 15.755 56.1664 16.1199 55.3982C16.2964 55.0317 16.5436 54.6887 16.8055 54.375C17.3352 53.7329 17.9796 53.211 18.6388 52.7097C19.5245 52.0353 20.4456 51.4167 21.4314 50.8919C23.0116 50.0563 24.5565 49.1591 26.0308 48.1476C26.7635 47.6433 27.4844 47.1273 28.0965 46.4764C28.3378 46.2214 28.5585 45.937 28.7321 45.6321C28.9823 45.1981 28.8763 44.8815 28.429 44.6763C27.8405 44.4007 27.2078 44.2717 26.5663 44.4095C24.6654 44.8199 22.7585 45.1776 20.834 45.4386C19.1567 45.6672 17.4706 45.8256 15.7756 45.9047C14.3778 45.9663 12.9801 45.9692 11.5852 45.8871C10.211 45.805 8.83975 45.6819 7.51261 45.3125C6.62981 45.0662 5.87061 44.5736 5.27325 43.8759C4.75534 43.2719 4.76417 42.5946 5.25559 41.9701C5.5528 41.5948 5.93534 41.3134 6.34437 41.0671C7.30957 40.4807 8.36304 40.082 9.42828 39.7243C11.4852 39.0353 13.5951 38.5427 15.7167 38.1C18.2798 37.5664 20.8605 37.1413 23.4501 36.7631C23.9738 36.6868 24.5035 36.6253 25.0685 36.549C25.0891 36.6956 25.1038 36.8158 25.1215 36.9566C25.0509 36.983 24.9979 37.0093 24.9449 37.0181C22.9086 37.3319 20.8664 37.6104 18.8389 37.9651C15.7109 38.5075 12.6034 39.1408 9.58718 40.1523C8.74853 40.4338 7.92752 40.7798 7.12712 41.158C6.67395 41.372 6.24138 41.6681 5.86178 41.9965C5.15848 42.6034 5.16437 43.1986 5.85295 43.826C6.53859 44.4505 7.33311 44.861 8.26299 45.031C9.84025 45.3213 11.4293 45.4561 13.033 45.4855C15.2753 45.5294 17.5088 45.3799 19.7335 45.119C22.0405 44.8434 24.3181 44.4124 26.5958 43.9492C27.3638 43.7938 28.1318 43.9638 28.8145 44.3743C29.2736 44.6469 29.406 45.0867 29.2441 45.6027C29.1 46.0543 28.8233 46.4266 28.4791 46.7374C27.9376 47.2299 27.3873 47.7166 26.8017 48.1535C25.3363 49.2412 23.7561 50.153 22.1494 51.018C21.0724 51.5955 20.0277 52.2171 19.0596 52.9618C18.374 53.4866 17.6972 54.029 17.1351 54.6887C16.9321 54.932 16.7378 55.19 16.5878 55.4686C16.2376 56.1195 16.4083 56.5592 17.0939 56.8554C17.5765 57.0665 18.0944 57.1251 18.6123 57.2043C19.8041 57.389 20.9311 57.7672 21.9552 58.4151C22.0847 58.4972 22.2024 58.6028 22.3083 58.7113C22.785 59.1921 22.7968 59.7081 22.3524 60.2183C22.2288 60.359 22.0641 60.4792 22.1465 60.7137C22.376 60.8164 22.6143 60.7724 22.835 60.702C23.3206 60.5525 23.7973 60.3736 24.274 60.2036C24.3946 60.1596 24.5124 60.1098 24.6507 60.0541C24.7154 60.1919 24.7713 60.3033 24.839 60.4469C24.0504 60.7958 23.2853 61.1359 22.4378 61.2239H22.4348ZM25.863 62.0712C25.8483 61.652 25.8542 61.2972 25.8807 60.8926C26.225 61.0333 26.5222 61.1565 26.8959 61.3089C26.534 61.5757 26.2279 61.8015 25.863 62.0712ZM27.5021 60.5173C27.146 60.0775 26.6693 59.8488 26.0661 59.8107C26.1132 59.6231 26.1514 59.4648 26.1956 59.3094C27.0901 56.0901 28.2142 52.9501 29.5414 49.8862C30.4036 47.8955 31.3423 45.937 32.2398 43.9609C32.3281 43.7703 32.4664 43.6384 32.6341 43.524C34.9294 41.9555 37.4483 40.9088 40.1702 40.3576C41.1207 40.167 42.0889 40.0732 43.0511 39.9442C43.2424 39.9178 43.4425 39.9412 43.6455 39.9412C43.0276 41.5831 29.459 58.8784 27.4991 60.5144L27.5021 60.5173ZM45.8496 36.8246C45.5524 37.2674 45.2434 37.6983 44.9609 38.1499C44.8285 38.361 44.6754 38.4079 44.4371 38.4049C41.7858 38.358 39.1962 38.704 36.7038 39.6451C35.7151 40.0204 34.7763 40.4924 33.8936 41.07C33.8465 41.1023 33.7964 41.1316 33.7464 41.1609C33.7288 41.1463 33.7111 41.1316 33.6934 41.1169C33.7494 41.0055 33.8023 40.8882 33.8612 40.7768C36.7391 35.2971 39.9348 30.005 43.3336 24.8332C43.4896 24.5957 43.6573 24.367 43.7985 24.1207C43.9162 23.9184 44.081 23.8305 44.2988 23.7748C46.1762 23.291 48.0654 22.8395 49.984 22.5434C50.9198 22.3997 51.8614 22.2766 52.8119 22.3117C53.1533 22.3264 53.4946 22.3792 53.8301 22.4466C54.0184 22.4877 54.195 22.5961 54.4068 22.687C54.3303 22.8366 54.2744 22.9509 54.2156 23.0623C51.6554 27.7885 48.8393 32.3594 45.8466 36.8246H45.8496ZM60.9925 12.3404C60.7483 14.4396 60.0067 16.3893 59.0974 18.2775C57.9204 20.7197 56.4579 22.9919 54.8835 25.1938C54.6776 25.4811 54.4686 25.7655 54.2597 26.0528C54.2391 26.0411 54.2185 26.0323 54.195 26.0235C54.245 25.9092 54.295 25.7919 54.345 25.6776C55.5103 23.0711 56.6992 20.4764 57.838 17.8582C58.6295 16.0404 59.3534 14.1962 59.9096 12.2905C60.0302 11.8859 60.1156 11.4696 60.2068 11.0533C60.2333 10.9389 60.2863 10.7865 60.0508 10.7425C59.1916 12.8681 58.2794 14.9761 57.273 17.0666C53.9919 16.6151 50.8727 17.2865 47.8123 18.383C47.8006 18.3625 47.7888 18.342 47.777 18.3214C47.8359 18.2364 47.8918 18.1484 47.9506 18.0605C50.2077 14.8677 52.5412 11.7305 54.9394 8.6403C55.1454 8.3735 55.3838 8.25036 55.7016 8.20052C57.1759 7.96597 58.5471 8.30313 59.8566 8.96281C60.1421 9.10647 60.4069 9.28532 60.6865 9.44071C60.8454 9.52867 60.9219 9.6606 60.9484 9.83359C61.0808 10.6662 61.0896 11.5018 60.9925 12.3374V12.3404Z" fill="white"/>
<path d="M122.12 18.1605C119.736 27.2669 117.367 36.3118 114.995 45.3655H106.747C105.376 39.7363 104.002 34.1071 102.619 28.428C102.298 28.6097 102.342 28.9293 102.283 29.1639C101.271 33.1307 100.279 37.1064 99.2786 41.0762C98.9579 42.3486 98.6342 43.6181 98.3105 44.8876C98.2693 45.043 98.2105 45.1926 98.1545 45.3655H89.9445C87.6434 36.3324 85.3393 27.2904 83.0352 18.2513C83.5737 18.096 89.2883 18.049 90.4006 18.1927C91.6307 24.3732 92.8666 30.5858 94.1084 36.8337C94.4203 36.6813 94.3821 36.3822 94.435 36.1623C95.4032 32.257 96.3595 28.3459 97.3159 24.4347C97.7838 22.5261 98.2546 20.6145 98.7254 18.7087C98.7696 18.5299 98.8402 18.3569 98.9049 18.1575H106.385C107.854 24.3732 109.319 30.58 110.784 36.7868C110.837 36.7897 110.89 36.7897 110.943 36.7927C111.605 33.7054 112.194 30.6034 112.827 27.5103C113.459 24.4142 114.065 21.3152 114.695 18.1605H122.12Z" fill="white"/>
<path d="M220.429 18.1688V45.3505C220.226 45.3651 220.023 45.3944 219.817 45.3974C217.96 45.3974 216.101 45.3827 214.241 45.4091C213.779 45.415 213.523 45.2478 213.279 44.8755C209.983 39.8825 206.672 34.9012 203.365 29.9199C203.241 29.7293 203.103 29.5446 202.97 29.3599C202.92 29.3775 202.873 29.3951 202.823 29.4127V45.2625C202.264 45.4326 196.676 45.456 195.949 45.2977V18.1219H196.741C198.506 18.1219 200.272 18.1424 202.035 18.1073C202.57 18.0985 202.879 18.2627 203.176 18.7142C206.39 23.6163 209.627 28.5067 212.858 33.3971C213.043 33.6815 213.237 33.9571 213.429 34.2386C213.476 34.221 213.523 34.2063 213.57 34.1887V18.1688H220.429Z" fill="white"/>
<path d="M250.988 35.8278C250.988 36.1268 250.932 36.4406 250.826 36.7162C249.049 41.3749 245.7 44.2746 240.818 45.292C237.431 45.9985 234.103 45.6409 230.995 44.043C226.961 41.9672 224.683 38.5955 224.012 34.1654C223.559 31.1661 223.821 28.2166 225.134 25.4401C227.102 21.2709 230.436 18.8462 234.959 18.04C237.666 17.5562 240.362 17.7028 242.966 18.6117C246.803 19.9545 249.343 22.5609 250.464 26.4809C250.496 26.5923 250.514 26.7067 250.552 26.8738H243.001C241.43 24.3582 239.017 23.8803 236.348 24.3113C233.479 24.7745 231.799 26.6246 231.116 29.363C230.66 31.1895 230.713 33.0425 231.31 34.8397C232.208 37.54 234.153 39.003 236.937 39.3988C238.04 39.5542 239.146 39.5425 240.232 39.2581C242.436 38.6805 243.808 37.2263 244.661 35.0186H236.386V29.9054H250.929C250.949 30.0666 250.994 30.2425 250.994 30.4155C251 32.2216 251.002 34.0247 250.988 35.8278Z" fill="white"/>
<path d="M140.609 34.7312C140.677 34.6726 140.706 34.6286 140.744 34.611C140.962 34.5201 141.18 34.4351 141.398 34.3472C143.611 33.4588 145.161 31.9195 146.003 29.6884C146.433 28.5508 146.556 27.3692 146.477 26.1642C146.28 23.1913 144.952 20.9015 142.301 19.4355C140.594 18.4915 138.735 18.1338 136.804 18.125C133.135 18.1103 129.465 18.1191 125.796 18.125C125.593 18.125 125.393 18.1631 125.195 18.1807V45.3535H132.055V40.2667C132.055 39.4252 132.052 38.5808 132.055 37.7364C132.061 36.9038 132.031 36.0711 132.075 35.2473H133.411C133.547 35.4847 133.661 35.687 133.776 35.8893C135.421 38.8623 137.072 41.8323 138.702 44.814C138.929 45.2274 139.176 45.418 139.682 45.4121C141.821 45.3799 143.964 45.4004 146.103 45.3975C146.306 45.3946 146.506 45.3682 146.815 45.3418C144.711 41.7473 142.66 38.2349 140.609 34.7312ZM139.364 28.067C139.097 29.1372 138.417 29.8291 137.34 30.0959C136.934 30.1985 136.504 30.2484 136.086 30.2572C134.909 30.2777 133.732 30.266 132.555 30.263C132.42 30.263 132.281 30.2454 132.102 30.2308V23.9536C132.187 23.9125 132.228 23.8774 132.273 23.8774C133.753 23.8891 135.236 23.848 136.713 23.9301C138.417 24.0239 139.517 25.1557 139.488 27.164C139.482 27.466 139.438 27.7738 139.364 28.067Z" fill="white"/>
<path d="M181.483 18.1602V23.6399H174.373C174.344 25.1557 174.365 26.5952 174.359 28.0377C174.356 29.4656 174.359 30.8934 174.359 32.3242V45.3506H167.476V23.6956H160.322V18.1602H181.483Z" fill="white"/>
<path d="M191.39 45.3595H184.681C184.525 44.8289 184.46 19.6556 184.602 18.2453C185.084 18.0929 190.301 18.043 191.328 18.1808C191.479 18.6822 191.543 43.9669 191.39 45.3595Z" fill="white"/>
<path d="M157.17 18.166V45.2861C156.587 45.4385 150.955 45.4444 150.328 45.2949V18.166H157.17Z" fill="white"/>
<path d="M135.863 63.7013C134.694 60.5465 133.526 57.3918 132.358 54.2371C131.884 52.9588 131.401 51.6834 130.954 50.3963C130.822 50.0181 130.622 49.8715 130.233 49.9037C129.862 49.9301 129.486 49.9096 129.147 49.9096C128.547 51.0824 123.818 64.0003 123.812 64.4665H125.231C125.672 63.2908 126.093 62.1591 126.514 61.0362H133.308C133.741 62.1855 134.171 63.3318 134.606 64.4841H136.127C136.016 64.1528 135.945 63.9241 135.866 63.7013H135.863ZM126.976 59.7549C127.941 57.1191 128.883 54.5449 129.886 51.8065C130.507 53.1933 130.913 54.4951 131.393 55.7646C131.881 57.0605 132.34 58.3623 132.814 59.6582C132.331 59.8487 128.353 59.9103 126.976 59.7549Z" fill="white"/>
<path d="M156.205 60.2591H157.841C157.773 60.4614 157.741 60.6285 157.667 60.7781C156.561 63.0474 154.701 64.27 152.226 64.5895C151.146 64.7273 150.058 64.7127 149.001 64.3931C146.176 63.5341 144.502 61.6107 143.925 58.7609C143.548 56.8992 143.737 55.0638 144.646 53.3662C145.953 50.921 148.03 49.672 150.805 49.5518C151.808 49.5108 152.794 49.6281 153.745 49.9506C155.531 50.5575 156.826 51.7214 157.647 53.4073C157.729 53.5773 157.779 53.765 157.859 53.9937H156.178C155.49 52.5277 154.445 51.4957 152.894 51.0735C149.069 50.0385 145.717 52.1935 145.335 56.2454C145.238 57.2803 145.288 58.3123 145.588 59.3209C146.412 62.0857 148.913 63.6982 151.791 63.3552C153.742 63.1207 155.187 62.1912 156.087 60.4438C156.114 60.3881 156.155 60.3354 156.205 60.2591Z" fill="white"/>
<path d="M96.3354 63.8361C95.2642 64.575 94.0519 64.7421 92.7895 64.6688C91.7566 64.6072 90.7796 64.3522 89.9262 63.7394C88.9405 63.0328 88.3549 62.0975 88.2695 60.8046H89.7615C89.7879 60.8867 89.835 61.0069 89.8733 61.1241C90.2411 62.3555 91.0415 63.1266 92.3186 63.3641C93.0631 63.5019 93.8135 63.4931 94.5492 63.2791C95.994 62.8569 96.7797 61.602 96.5149 60.1302C96.356 59.2448 95.7763 58.6848 94.9847 58.3535C94.3756 58.1014 93.7311 57.9284 93.1043 57.7261C92.2863 57.4622 91.4535 57.2335 90.6501 56.9315C87.6898 55.8233 87.834 51.9737 89.8085 50.5576C90.4883 50.0709 91.2269 49.7572 92.0509 49.6311C93.2073 49.4523 94.3432 49.508 95.4408 49.9419C96.8386 50.5019 97.7361 51.6541 97.8832 53.079H96.3618C96.303 52.9207 96.253 52.78 96.1941 52.6392C95.8969 51.9678 95.4231 51.443 94.7522 51.1528C93.6517 50.669 92.5158 50.6485 91.4064 51.1293C90.4294 51.5574 89.8998 52.3197 89.8703 53.3986C89.8409 54.4599 90.3382 55.234 91.274 55.6708C91.9479 55.9875 92.6806 56.1839 93.3898 56.4214C94.146 56.6735 94.9111 56.8875 95.6556 57.169C97.0239 57.685 97.9067 58.632 98.0421 60.1302C98.1833 61.6783 97.6242 62.9361 96.3295 63.8332L96.3354 63.8361Z" fill="white"/>
<path d="M116.288 53.4484C116.156 51.7977 115.29 50.6367 113.719 50.1002C113.001 49.8568 112.212 49.7571 111.45 49.722C110.105 49.6604 108.758 49.7014 107.407 49.7073C107.239 49.7073 107.066 49.7337 106.907 49.7483C106.766 50.4989 106.795 63.9739 106.936 64.4723H108.284V58.2069C108.655 58.2069 108.914 58.2127 109.179 58.2069C110.303 58.1805 111.436 58.2069 112.551 58.1072C114.464 57.9342 115.829 56.7908 116.203 55.0815C116.317 54.5537 116.329 53.9849 116.288 53.4455V53.4484ZM114.799 54.3954C114.711 55.4656 114.196 56.2835 113.145 56.653C112.695 56.8113 112.204 56.9139 111.727 56.9344C110.694 56.9784 109.652 56.952 108.617 56.9491C108.534 56.9491 108.452 56.9227 108.331 56.9022V51.012C108.522 50.9944 108.693 50.9651 108.861 50.9651C109.744 50.9651 110.626 50.9446 111.509 50.971C111.945 50.9827 112.389 51.0355 112.816 51.1322C113.131 51.2055 113.451 51.3404 113.716 51.5251C114.725 52.2287 114.887 53.2842 114.796 54.3954H114.799Z" fill="white"/>
<path d="M174.442 64.3963C173.906 64.5488 167.612 64.584 166.802 64.4579C166.664 63.9888 166.623 50.6252 166.761 49.731H174.394V50.8949H168.2V56.4509C170.036 56.4773 171.861 56.4509 173.741 56.4714V57.6676H168.209V63.3144H174.389C174.412 63.5138 174.439 63.6399 174.442 63.766C174.45 63.98 174.442 64.1999 174.442 64.3963Z" fill="white"/>
</g>
<defs>
<clipPath id="clip0_231_944">
<rect width="251" height="79" fill="white"/>
</clipPath>
</defs>
</svg>
